<svg width="230" height="42" viewBox="0 0 230 42" fill="none" xmlns="http://www.w3.org/2000/svg">
<g clip-path="url(#clip0_413_2985)">
<path fill-rule="evenodd" clip-rule="evenodd" d="M12.5498 4.67651C13.571 4.40734 14.5921 4.23733 15.6062 4.15941C15.7977 4.14525 15.8615 4.41442 15.6772 4.47817C7.60691 7.30451 2.87681 15.7764 4.79154 24.1846C5.07521 25.3392 4.38732 26.5151 3.23139 26.8197C2.07546 27.1243 0.898249 26.4442 0.572035 25.3038C-1.82493 16.3006 3.52924 7.07075 12.5498 4.67651ZM21.2013 4.67446H21.1871H21.18H21.1586C20.0007 4.38404 18.8144 5.07114 18.5089 6.22576C18.1964 7.38038 18.8854 8.56333 20.0363 8.88917C28.305 11.4109 33.3203 19.727 31.7575 28.1281C31.722 28.3193 31.9848 28.3972 32.07 28.2272C32.5105 27.3064 32.8728 26.3359 33.1427 25.3159C35.5509 16.3198 30.2089 7.10412 21.2013 4.68863V4.67446ZM28.839 32.9079C29.6829 32.0595 29.6829 30.6808 28.839 29.8323C27.988 28.9839 26.6122 28.9839 25.7541 29.8323C19.4426 35.6935 9.72707 35.8562 3.23115 30.3131C3.08223 30.1858 2.88366 30.3767 2.99004 30.5323C3.56446 31.3666 4.22398 32.1655 4.97569 32.9079C11.5709 39.4832 22.2367 39.4832 28.839 32.922C28.839 32.922 28.8461 32.922 28.8461 32.9149L28.839 32.9079ZM23.3719 22.4066C23.223 21.932 23.0244 21.3795 22.8188 20.8482L22.0741 18.9923C22.0741 18.9923 22.0812 18.6027 22.0812 18.4186C22.0812 15.2451 20.5849 12.0646 16.8973 12.0646C13.2096 12.0646 11.7133 15.2522 11.7133 18.4186C11.7133 18.562 11.7173 18.8009 11.7193 18.9205L11.7193 18.9206L11.7204 18.9923L10.9758 20.8482C10.7701 21.3795 10.5715 21.932 10.4226 22.4066C9.72055 24.6663 9.94748 25.6013 10.1177 25.6225C10.4864 25.665 11.5644 23.9225 11.5644 23.9225C11.5644 24.9354 12.0821 26.253 13.2096 27.2022C12.7912 27.3297 12.2735 27.5351 11.9402 27.7759C11.6424 27.9955 11.6778 28.2222 11.7346 28.3143C11.9686 28.711 15.7839 28.5693 16.8902 28.4418C17.9894 28.5622 21.8047 28.711 22.0458 28.3143C22.1025 28.2222 22.138 28.0026 21.8401 27.7759C21.5068 27.528 20.9891 27.3297 20.5707 27.2022C21.6983 26.253 22.216 24.9284 22.216 23.9225C22.216 23.9225 23.2939 25.665 23.6627 25.6225C23.8329 25.6013 24.0669 24.6663 23.3577 22.4066H23.3719ZM72.2085 7.1756L73.335 13.5476H76.654L75.3756 7.1756H72.2085ZM57.3408 7.20577C57.2798 8.66182 57.0054 10.2709 56.7319 11.3627H55.6963C55.6564 11.1726 55.6172 10.9863 55.5786 10.8031C55.3524 9.72878 55.148 8.75822 54.9657 7.7213H51.7684L52.4997 11.3627H50.3986L49.9113 13.7903H56.0009C55.9611 13.883 55.9212 13.9787 55.8803 14.0766L55.8803 14.0767C55.7342 14.4271 55.5758 14.8068 55.3617 15.1864H49.6676L49.1807 17.5532H53.7475C52.6209 18.7364 50.1852 19.8589 48.6627 20.2235L48.0231 23.2572C49.0284 23.0451 50.0026 22.7416 50.9461 22.3166L50.0026 27.2628H60.4772C60.9035 27.2628 60.9948 27.4149 60.9035 27.8395C60.6901 29.1141 60.3547 30.6921 60.0509 32.027H54.1439L54.6918 34.4848H62.9432C63.4612 31.7844 64.0091 28.6283 64.3748 26.3223C64.5873 25.0477 63.8568 24.8654 62.7909 24.8654H61.2991L61.9993 21.6192C63.1263 22.3774 64.4354 22.9546 65.8662 23.2572L66.6582 20.5873C65.0448 20.1929 62.4256 18.9791 61.6336 17.5532H66.3232L66.9023 15.1864H58.711C58.8754 14.8355 59.0212 14.4669 59.1633 14.108L59.1633 14.1079C59.2056 14.0009 59.2476 13.8948 59.2896 13.7903H65.9579L66.5366 11.3627H64.2835C64.8617 10.2097 65.3793 8.9963 65.8359 7.7213H62.6389C62.243 8.9351 61.7561 10.2403 61.2077 11.3627H59.9899C60.2946 10.1489 60.4465 8.84457 60.5685 7.20577H57.3408ZM57.3408 17.5532H58.4674C58.8326 18.3416 59.3199 19.1002 59.8986 19.7683H55.1181C55.9702 19.0705 56.7319 18.3114 57.3408 17.5532ZM53.9911 23.0451L52.5603 22.0744H58.254C58.6803 22.0744 58.772 22.2257 58.6803 22.6511L58.1934 24.8654H53.6258L53.9911 23.0451ZM110.914 7.25847C111.006 7.92912 111.128 8.69115 111.281 9.42342H100.631L99.6826 15.8583H103.263L103.783 12.0767H122.084C122.329 12.0767 122.42 12.2293 122.39 12.4426L121.931 15.3092H125.542L126.154 11.1621C126.368 9.75875 125.909 9.42342 124.624 9.42342H114.892L114.891 9.41762L114.891 9.41753C114.738 8.65704 114.586 7.8973 114.494 7.25847H110.914ZM130.922 7.502C130.218 12.7784 129.331 18.603 128.504 23.4212C127.678 27.9351 126.821 31.3815 125.903 34.3705H129.208C129.912 31.8694 130.677 28.6062 131.381 24.8246H134.87L133.371 34.3705H136.645L140.379 9.27085C140.593 7.77697 139.981 7.502 138.328 7.502H130.922ZM133.646 10.0945H136.584C137.074 10.0945 137.165 10.2165 137.104 10.6738L136.461 14.73H133.004C133.218 13.3062 133.395 11.9746 133.535 10.9222L133.535 10.92C133.575 10.6208 133.612 10.3442 133.646 10.0945ZM132.636 17.2001H136.064L135.268 22.3239H131.84C132.116 20.799 132.391 18.9693 132.636 17.2001ZM142.888 7.5326L138.94 34.3705H145.887C146.805 33.3637 147.601 32.3874 148.243 31.5651C148.825 32.5094 149.407 33.4249 150.049 34.3705H153.966C152.62 32.6628 151.365 30.863 150.202 29.0023C151.671 26.9292 152.834 24.8552 153.844 22.9643C154.365 21.9273 154.701 21.0429 154.701 20.2197C154.701 19.396 154.517 19.0301 153.599 19.0301H144.449L145.704 10.2165H151.916C152.314 10.2165 152.406 10.369 152.344 10.7345C152.222 11.5582 151.977 13.1137 151.763 14.1809H147.142L147.907 16.8652H154.64C155.099 14.3334 155.558 11.5582 155.864 9.30145C156.047 7.92912 155.71 7.5326 154.395 7.5326H142.888ZM144.051 21.7136H150.814C151.028 21.7136 151.151 21.8355 150.998 22.2015C150.447 23.3303 149.498 24.9771 148.58 26.3801C147.968 25.3125 147.356 24.2449 146.805 23.1773H143.837L144.051 21.7136ZM143.806 23.513C144.755 25.3431 145.704 27.1425 146.714 28.9415C145.459 30.5884 143.99 32.2965 142.306 34.0347L143.806 23.513ZM78.2678 7.93422L78.8768 10.6036H90.1131C90.8133 10.6036 91.1479 10.6954 90.9959 11.4842C90.6307 13.3653 90.2347 15.5804 89.8084 18.0382H84.9366L85.6978 13.7295L82.7441 11.545L81.5873 18.0382H77.4759L76.9583 20.6179H81.1303L78.6941 34.4848H82.0439L84.48 20.6179H89.3518C88.7647 23.8368 88.1376 27.4479 87.4398 31.4665L87.4392 31.47L87.4371 31.4821C87.2675 32.4589 87.0937 33.4597 86.9153 34.4848H93.4931L94.5885 31.6628H90.8133C91.5225 27.7493 92.2711 23.5319 93.0144 19.3449L93.0163 19.3346C93.5806 16.1557 94.1418 12.9945 94.6802 9.99717C94.9537 8.48035 94.6495 7.93422 92.7924 7.93422H78.2678ZM42.116 7.99457C41.2635 13.2442 40.2893 18.9489 39.1021 24.8054C38.4019 28.2943 37.5796 31.5107 36.666 34.4848H39.7106C40.5022 31.7232 41.3245 28.477 42.0247 24.9869H44.0951L42.2991 34.4848H45.4047L49.8195 9.7545C50.0632 8.26742 49.4547 7.99457 47.9019 7.99457H42.116ZM44.6132 10.5735H46.1353C46.5923 10.5735 46.7749 10.6653 46.6836 11.1502L45.9223 15.1864H43.8212L44.6132 10.5735ZM43.3646 17.6438H45.4658L44.5522 22.499H42.4813C42.786 20.9214 43.0907 19.252 43.3646 17.6438ZM108.588 12.4732C105.65 14.8825 101.947 17.444 98.4588 19.3654H103.386C104.181 18.8775 105.038 18.2983 105.956 17.6574C106.997 18.3896 108.282 19.2133 109.598 20.0365C106.17 21.5006 101.825 23.1471 97.3263 24.7026H104.793C106.477 24.0009 109.323 22.8122 112.199 21.5614C114.311 22.751 116.422 23.879 118.167 24.7026H125.358C121.594 23.1471 118.136 21.5308 115.29 20.1589C117.585 19.0611 119.574 18.0237 120.646 17.2311C121.35 16.7126 121.594 15.8583 121.594 14.9127C121.594 14.2722 121.227 13.9981 120.401 13.9981H110.669C111.073 13.6728 111.452 13.347 111.822 13.0289L111.823 13.0287C112.042 12.8403 112.258 12.6545 112.475 12.4732H108.588ZM107.517 16.4988H116.269C116.453 16.4988 116.483 16.5902 116.361 16.682C115.565 17.2311 114.249 17.9323 112.535 18.725C111.587 18.2375 110.761 17.8104 110.088 17.4138H106.262C106.66 17.1091 107.088 16.804 107.517 16.4988ZM69.1634 15.1558L68.7068 17.8261H71.8432L68.7679 34.3633C71.6299 32.6339 74.4615 30.6921 76.654 28.9318L77.385 24.9869C77.1803 25.1493 76.9734 25.3137 76.7654 25.479C75.612 26.396 74.4231 27.3411 73.3653 28.1124L75.6798 15.1558H69.1634ZM101.488 25.3125L100.111 34.4007H120.34L121.411 27.2037C121.594 25.709 121.35 25.3125 119.881 25.3125H101.488ZM104.548 27.8438H117.677C117.891 27.8438 117.922 27.9045 117.891 28.1183L117.279 31.8694H103.967L104.548 27.8438ZM47.5972 28.477L48.0231 30.8438H58.5284L59.0763 28.477H47.5972ZM217.846 10.2547L217.778 10.2639C217.542 10.2952 217.427 10.3105 217.279 10.491C217.334 10.5626 217.405 10.6179 217.475 10.6715C217.559 10.7367 217.64 10.7994 217.684 10.8859C217.884 11.1774 217.591 11.6819 217.391 12.0275L217.39 12.0279C217.347 12.1028 217.308 12.1702 217.279 12.2263C216.995 12.7393 216.672 13.2123 216.348 13.6858C216.297 13.751 216.254 13.8062 216.214 13.8576L216.213 13.8585C216.059 14.0547 215.948 14.1955 215.659 14.6322C215.538 14.8294 215.335 15.3025 215.659 15.342C215.942 15.3815 216.55 15.1448 216.753 14.9875C216.915 14.8887 217.066 14.7902 217.218 14.6916C217.37 14.593 217.522 14.4943 217.684 14.3955C218.005 14.2035 218.341 13.9233 218.665 13.6534L218.665 13.6532C218.872 13.4804 219.074 13.3117 219.264 13.1732L219.142 13.449C218.332 15.2238 217.36 16.3679 216.631 17.1954C213.067 18.1814 211.731 19.2069 211.731 20.4688C211.731 21.4552 212.136 21.9677 212.946 21.9677H213.108C213.634 21.9677 214.242 21.6129 214.931 20.9422C216.672 18.6549 217.846 17.5503 218.454 17.5503H218.616V17.7084L218.454 17.8665C218.413 17.9056 218.454 18.1028 218.494 18.1423C218.527 18.2065 218.613 18.2446 218.688 18.2776C218.705 18.2852 218.722 18.2926 218.737 18.3C219.045 18.4997 218.949 18.8958 218.863 19.2517C218.847 19.3175 218.831 19.382 218.818 19.4437C218.818 19.8381 218.13 20.272 216.51 20.9813L216.186 20.9027C216.186 20.9027 215.902 20.5083 215.862 20.5083L215.659 20.7059C215.457 20.9813 215.457 21.4552 215.659 21.6919C215.74 21.7705 215.942 21.9282 216.064 21.9677C216.348 22.0863 216.793 21.9282 217.036 21.8101C217.138 21.7507 217.261 21.6712 217.383 21.5918C217.503 21.5133 217.624 21.4349 217.725 21.3761L217.743 21.363L217.775 21.339C217.934 21.2209 218.15 21.0608 218.332 21.0608C218.357 21.1827 218.336 21.2292 218.306 21.2935C218.288 21.3333 218.267 21.3799 218.251 21.4552C218.182 21.7226 217.968 22.0753 217.658 22.5851C217.602 22.6765 217.544 22.7728 217.482 22.8747C217.04 23.5991 216.438 24.1937 216.013 24.6135C215.698 24.9251 215.48 25.1404 215.497 25.2411C215.538 25.5173 216.591 25.2411 217.239 24.7681L217.28 24.7395C217.538 24.5595 217.692 24.4523 217.846 24.4523C217.886 24.4523 218.09 25.2411 218.09 25.3201C218.17 25.596 218.332 25.8722 218.494 26.069C218.777 26.4638 219.345 27.0554 219.831 26.8582C220.924 26.3852 222.22 24.6495 222.423 24.2551C223.067 23.2448 223.363 21.9568 223.479 21.4532C223.495 21.3869 223.507 21.3342 223.516 21.2975C223.557 21.1398 223.638 20.272 223.395 19.8776C223.065 19.3065 221.906 19.3165 221.088 19.3236C221.002 19.3244 220.92 19.3251 220.843 19.3251H220.236C220.212 19.1887 220.243 19.0393 220.273 18.8919C220.295 18.7835 220.317 18.6761 220.317 18.5758C220.308 18.5212 220.302 18.4729 220.298 18.428C220.282 18.2786 220.27 18.1667 220.114 17.9846C220.092 17.9623 219.874 17.9022 219.675 17.847C219.522 17.8047 219.38 17.7653 219.345 17.7483C219.183 17.7084 218.859 17.5902 218.859 17.393C219.345 17.314 222.22 17.2349 222.504 17.2749C222.949 17.314 223.921 17.4717 224.245 17.5902C224.688 17.7892 225.044 18.0436 225.315 18.2368C225.366 18.2735 225.415 18.308 225.46 18.3395L225.522 18.3799C225.899 18.6254 226.539 19.0428 226.999 18.9311C227.404 18.8521 227.404 18.5367 227.404 18.3395C227.364 17.7084 226.878 17.1954 226.432 16.8805C225.703 16.3679 224.326 16.0917 223.233 16.0126C222.706 15.9735 220.843 16.0917 220.317 16.2098C220.199 16.2263 219.996 16.2838 219.779 16.3453C219.476 16.4314 219.146 16.5252 218.98 16.5252L218.494 16.5647L221.856 12.3449C221.856 12.0291 221.531 11.6351 220.6 11.6351L219.79 11.7928C219.021 12.1082 218.413 12.5816 217.563 13.2914C217.786 12.9655 218.003 12.6823 218.196 12.4299L218.196 12.4297C218.494 12.0407 218.736 11.7248 218.859 11.4379C218.94 11.2803 219.061 10.9645 219.061 10.8068C219.061 10.5701 218.818 10.3729 218.616 10.2547C218.552 10.208 218.458 10.1918 218.351 10.1918C218.214 10.1918 218.057 10.2188 217.923 10.2418C217.896 10.2463 217.871 10.2507 217.846 10.2547ZM212.5 19.9171C212.905 19.2465 213.31 18.9311 214.363 18.6153C214.485 18.5758 215.781 18.3 215.781 18.3C214.526 20.0744 213.877 20.8241 212.865 20.8241C212.298 20.8241 212.379 20.4297 212.5 19.9171ZM218.818 24.9653C218.535 24.4918 218.413 24.1369 218.251 23.6244C218.517 22.9627 218.589 22.8043 218.766 22.4155L218.766 22.4151C218.831 22.2708 218.911 22.0948 219.021 21.8496C219.153 21.5273 219.312 21.2841 219.477 21.0334C219.513 20.9774 219.55 20.9209 219.587 20.8632C219.634 20.7727 219.663 20.6879 219.69 20.6089C219.733 20.4816 219.771 20.3693 219.871 20.272C219.897 20.2227 220.002 20.2043 220.096 20.1877C220.153 20.1778 220.206 20.1686 220.236 20.1538C220.478 20.0744 220.762 20.1143 221.005 20.1538C221.248 20.1934 221.531 20.3115 221.531 20.5478C221.531 20.6071 221.552 20.7554 221.572 20.9035L221.572 20.9036C221.593 21.0514 221.613 21.199 221.613 21.258C221.581 22.4426 221.549 22.4933 221.156 23.1062C221.052 23.2685 220.923 23.4701 220.762 23.7425C220.583 24.0335 220.338 24.3674 220.107 24.6809L220.107 24.6811C220.025 24.7926 219.945 24.9014 219.871 25.0048C219.749 25.162 219.467 25.2806 219.223 25.2806C219.033 25.2806 218.914 25.1056 218.833 24.9865L218.818 24.9653ZM203.955 11.6351C203.509 11.8319 203.104 12.1082 202.7 12.3844C202.339 12.6575 201.979 13.0075 201.658 13.3201L201.646 13.3309C201.416 13.5549 201.227 13.9381 201.064 14.2686C200.998 14.4034 200.936 14.5294 200.877 14.6322C200.756 14.8277 200.626 15.0329 200.496 15.2383L200.495 15.2386C200.363 15.4474 200.23 15.6564 200.108 15.8554C200.027 15.9723 199.927 16.1085 199.827 16.2449L199.827 16.2456L199.827 16.2457C199.725 16.3848 199.622 16.5241 199.541 16.6433C199.486 16.7327 199.456 16.7816 199.42 16.8266C199.378 16.8812 199.328 16.9299 199.217 17.0377C199.176 16.8805 199.46 14.5536 199.702 13.8825C199.705 13.8739 199.708 13.8649 199.712 13.8555C199.717 13.8409 199.723 13.8255 199.728 13.8094C199.77 13.6939 199.824 13.5456 199.824 13.449C200.148 12.0686 199.257 12.0291 198.852 12.1477C198.47 12.277 198.081 12.3932 197.691 12.5097L197.691 12.5097C197.13 12.6774 196.567 12.8457 196.017 13.0551C195.979 13.0733 195.924 13.083 195.871 13.0922C195.811 13.1028 195.755 13.1126 195.734 13.1337C195.572 13.2123 195.531 13.4886 195.531 13.6462C195.531 13.7253 197.192 13.3309 197.313 13.2914C197.397 13.269 197.481 13.2452 197.566 13.2213C197.928 13.1192 198.296 13.0155 198.69 13.0155C198.69 13.0155 198.326 15.6969 198.285 15.934C198.285 16.0522 198.285 16.1703 198.244 16.2885L197.758 16.2494L196.382 16.407H196.219C196.219 16.372 196.22 16.3362 196.22 16.2999C196.224 15.9684 196.228 15.5949 195.936 15.3815C195.774 15.2629 195.652 15.2238 195.45 15.2238C195.491 15.2238 195.45 15.8554 195.41 16.3284C195.375 16.6504 195.34 16.9506 195.305 17.251L195.305 17.2541L195.305 17.2551C195.259 17.6519 195.213 18.0491 195.166 18.4972C195.153 18.576 195.126 18.873 195.092 19.2533L195.092 19.2556C195.023 20.018 194.924 21.1132 194.843 21.4552C194.802 21.6524 194.761 21.8101 194.64 22.0468C194.528 22.1927 194.485 22.1359 194.383 22.0016L194.357 21.9677C194.275 21.8887 194.397 22.8747 194.438 23.1118C194.478 23.5849 194.478 23.7425 194.478 24.0974C194.478 24.3337 194.721 24.5709 194.924 24.5709C195.328 24.5709 195.369 24.3337 195.369 24.2942L195.693 21.7705C195.693 21.7705 196.503 21.9282 196.584 21.9282C196.949 21.8887 197.273 21.5342 197.435 21.2975L197.471 21.2393C197.573 21.0748 197.645 20.9572 197.718 20.745C197.758 20.6269 197.88 20.4297 197.961 20.3506L198.164 20.1538C198.164 20.272 198.204 22.8747 198.204 22.8747C198.102 22.7255 198.032 22.5136 197.974 22.338L197.974 22.3378C197.94 22.2349 197.91 22.1444 197.88 22.0863C197.758 21.8101 197.678 21.6919 197.556 21.6524C197.435 22.3226 197.516 23.2691 197.597 23.9793C197.678 24.4523 197.88 24.9653 198.083 25.4383C198.164 25.6355 198.406 25.9508 198.568 26.1085C198.892 26.4243 199.338 25.9117 199.297 25.596C199.297 25.3993 199.287 25.0165 199.277 24.6331L199.277 24.6297C199.267 24.2452 199.257 23.8607 199.257 23.6635C199.217 23.1509 199.176 22.0073 199.176 21.8101C199.176 21.4943 199.135 18.8916 199.135 18.8916C199.135 18.4186 199.176 17.9846 199.419 17.5902C199.761 17.0631 200.123 16.5556 200.491 16.04C200.646 15.8226 200.802 15.6038 200.958 15.3815C200.965 15.3704 200.973 15.3589 200.981 15.3472L201.009 15.306C201.169 15.0685 201.392 14.7385 201.646 14.6322C201.727 14.5931 201.849 14.6718 201.849 14.7113C201.889 14.7899 201.889 14.9085 201.849 14.9875C201.809 15.1448 201.809 15.3025 201.809 15.4606C201.787 15.6924 201.754 15.9243 201.721 16.15L201.721 16.1504C201.693 16.347 201.665 16.539 201.646 16.7224C201.567 17.2235 201.527 17.7254 201.487 18.2265L201.484 18.2609C201.464 18.4972 201.424 18.7433 201.383 18.9895L201.383 18.9899L201.383 18.9901C201.343 19.2366 201.302 19.4831 201.282 19.7199C201.282 19.8776 201.201 20.9422 201.039 21.6524C201.001 21.8374 200.967 22.0263 200.934 22.2071L200.934 22.2074L200.934 22.208C200.863 22.6044 200.798 22.9613 200.715 23.1509C200.553 23.5058 200.674 24.3337 200.755 24.4918C200.774 24.5218 200.795 24.5609 200.819 24.6044C200.951 24.8471 201.157 25.2266 201.363 24.9257C201.484 24.7681 201.768 24.0974 201.768 23.9002C201.872 23.8583 201.975 23.8176 202.074 23.7778L202.078 23.7764C203.293 23.2918 204.17 22.9418 204.805 22.3226C204.862 22.268 204.912 22.2164 204.956 22.1703L204.957 22.1698C205.072 22.0499 205.152 21.9677 205.21 21.9677C205.718 21.9677 205.999 22.1602 206.361 22.4076C206.432 22.4564 206.507 22.5073 206.587 22.5593C206.96 22.8018 207.089 22.925 207.199 23.0296C207.267 23.0954 207.328 23.1539 207.438 23.23C207.559 23.3086 208.086 23.9397 208.288 24.2551C208.352 24.3417 208.404 24.4284 208.455 24.5139C208.566 24.7007 208.674 24.8818 208.896 25.0439C209.099 25.2016 209.544 25.1229 209.665 24.8471L209.706 24.2942C209.625 22.6775 208.248 21.9282 205.656 21.1398C206.182 20.4297 206.304 20.0744 206.425 19.3251C206.507 19.0097 206.587 18.379 206.587 18.0242C206.587 17.9914 206.588 17.9558 206.588 17.9182C206.593 17.6397 206.599 17.2514 206.385 17.0773C206.219 16.9478 205.97 16.8716 205.753 16.8047C205.705 16.7901 205.659 16.776 205.616 16.7619C205.332 16.6829 205.129 16.6829 204.765 16.8805C204.482 17.0377 204.198 17.1954 203.955 17.4321C203.849 17.5357 203.758 17.6545 203.665 17.7751C203.547 17.9301 203.426 18.0882 203.267 18.2214C202.994 18.4867 202.857 18.7083 202.737 18.9021C202.697 18.9671 202.659 19.029 202.618 19.0884L202.596 19.1173C202.473 19.2787 202.275 19.5366 201.971 19.7594C202.03 19.3922 202.07 19.1292 202.11 18.8683L202.11 18.8654C202.151 18.5947 202.192 18.326 202.254 17.9451C202.254 17.9058 202.284 17.7579 202.315 17.61C202.345 17.4621 202.376 17.3142 202.376 17.2749C202.376 17.2349 202.781 17.1563 202.821 17.1563C203.267 16.9986 204.036 16.5252 204.238 16.3284C204.846 15.6182 205.251 14.7899 205.575 13.9616C205.8 13.3771 205.851 13.1649 206.019 12.4776L206.061 12.3054C206.142 11.7533 205.899 11.477 205.777 11.3984C205.677 11.2998 205.52 11.262 205.338 11.262C204.863 11.262 204.218 11.5208 203.955 11.6351ZM202.74 14.3169C202.74 13.8434 202.862 13.5676 203.023 13.4095C203.064 13.37 204.076 12.5816 204.157 12.5816L204.159 12.5809C204.28 12.5421 204.401 12.5032 204.482 12.6211C204.441 13.1337 204.36 13.5281 204.198 14.0011C204.156 14.1173 204.118 14.2248 204.083 14.3264C203.95 14.7081 203.846 15.008 203.591 15.3815C203.549 15.4417 203.508 15.5069 203.465 15.5753L203.465 15.5757C203.338 15.7764 203.194 16.0042 202.983 16.2098C202.941 16.2367 202.89 16.2821 202.836 16.3302C202.733 16.4227 202.617 16.5252 202.537 16.5252C202.483 16.5252 202.594 15.5915 202.672 14.9358L202.672 14.9349L202.672 14.9345C202.71 14.619 202.74 14.3681 202.74 14.3169ZM196.098 17.9056C196.098 17.8663 196.108 17.817 196.118 17.7677C196.128 17.7184 196.138 17.6691 196.138 17.6298C196.138 17.1563 196.584 16.9591 197.718 16.9591C197.539 17.3723 197.336 17.7257 197.122 18.0983L197.122 18.0985C196.947 18.4015 196.766 18.7173 196.584 19.0884C196.503 19.2069 196.382 19.4832 196.382 19.4832C196.331 19.5319 196.247 19.6343 196.159 19.7406L196.159 19.7408L196.159 19.741C196.034 19.8923 195.903 20.0514 195.855 20.0744C195.88 19.589 195.936 19.1783 195.994 18.7502C196.03 18.4829 196.067 18.2088 196.098 17.9056ZM196.463 19.7199C196.584 19.5618 197.475 18.2214 197.556 18.0242C197.614 17.9108 197.756 17.7972 197.862 17.713C197.903 17.6802 197.938 17.6518 197.961 17.6298C198.152 17.4743 198.118 17.8806 198.094 18.1571C198.088 18.232 198.083 18.2974 198.083 18.3395C198.001 18.7734 197.92 19.2069 197.678 19.5618L197.654 19.6001C197.522 19.8149 197.261 20.2419 197.07 20.3901C196.867 20.5083 196.463 20.6664 196.219 20.6664C195.849 20.3387 196.15 20.0382 196.356 19.8329C196.397 19.7911 196.435 19.7533 196.463 19.7199ZM204.157 18.5367C204.259 18.4381 204.37 18.3395 204.481 18.2409C204.593 18.1423 204.704 18.0437 204.805 17.9451C204.987 17.8037 205.103 17.8209 205.33 17.8545C205.356 17.8583 205.384 17.8624 205.413 17.8665C205.413 17.9018 205.438 17.9213 205.465 17.9427C205.498 17.969 205.535 17.9982 205.535 18.0633C205.535 18.5329 205.364 19.0693 205.211 19.5504L205.17 19.6808C205.048 19.9957 204.927 20.2325 204.644 20.6269C204.496 20.8426 204.179 20.7958 203.909 20.756C203.883 20.7522 203.858 20.7485 203.833 20.745C203.591 20.7059 203.428 20.7059 203.185 20.7059H202.74C202.862 19.8381 203.509 19.1279 204.157 18.5367ZM201.971 21.8887C202.011 21.6919 202.051 21.6129 202.132 21.4552C202.214 21.3366 202.376 21.2185 202.537 21.2185H203.145C203.292 21.2185 203.394 21.2473 203.506 21.2788C203.579 21.2994 203.656 21.3211 203.753 21.3366C204.036 21.4552 203.874 21.6129 203.712 21.731C203.66 21.7819 203.599 21.8451 203.535 21.9114L203.535 21.9117C203.401 22.0507 203.255 22.2031 203.145 22.2831C202.992 22.398 202.852 22.5129 202.717 22.6239C202.389 22.8941 202.089 23.1411 201.687 23.3086C201.768 22.9542 201.93 22.1649 201.971 21.8887ZM180.2 13.4741C176.738 14.0746 175.79 18.9974 179.706 21.2384C184.032 23.72 181.807 25.8412 181.807 25.8412C181.807 25.8412 185.145 23.9606 187.989 22.0391C190.997 19.9575 193.552 16.3157 190.05 14.234C189.019 13.5944 188.113 13.4741 187.371 13.5944C185.351 13.9544 184.362 15.9157 184.362 15.9157C184.362 15.9157 183.782 13.3959 181.067 13.3959C180.799 13.3959 180.51 13.4201 180.2 13.4741ZM180.364 20.1177C178.716 19.1572 178.139 17.997 178.304 16.9561C178.469 16.1159 179.128 14.7151 180.364 14.5145L180.695 14.4746C181.61 14.3198 181.872 14.6135 182.372 15.1746L182.425 15.2349C182.878 15.7555 183.043 16.3956 183.043 16.4359L183.95 18.5975L185.64 16.6361C185.64 16.6361 186.505 15.115 187.783 14.9149C188.318 14.8345 188.648 14.8749 189.308 15.2753C189.468 15.4016 189.626 15.4996 189.774 15.5917C190.236 15.8786 190.605 16.1081 190.668 16.9561C190.75 17.7968 189.308 19.5975 187.329 20.9584C186.554 21.4762 185.764 21.897 185.019 22.2942C184.497 22.5725 183.996 22.8392 183.538 23.1195C183.085 21.9184 182.054 21.0782 180.364 20.1177ZM170.097 13.5676C167.222 14.5141 165.278 14.9875 164.265 14.9875H164.104V15.1448C164.104 15.4606 164.427 15.5787 165.035 15.5787H165.642L166.344 15.5219L167.1 15.4606C167.266 15.4283 167.378 15.4752 167.523 15.5363L167.523 15.5365C167.556 15.5501 167.59 15.5644 167.626 15.5787V16.6433C167.626 16.6923 167.63 16.7525 167.635 16.817C167.644 16.9609 167.655 17.1261 167.626 17.2349C167.505 17.4717 166.372 17.9846 164.751 18.6944C164.658 18.2932 164.578 17.9855 164.513 17.7336C164.379 17.2176 164.306 16.9357 164.306 16.5647C164.306 16.5647 164.185 16.1703 164.022 16.4861C163.9 16.7619 163.78 17.0773 163.78 17.0773C163.78 17.0773 163.9 18.8521 163.82 20.0353C163.739 21.2185 162.767 24.1369 162.362 23.7425C162.281 24.8866 162.848 25.3992 163.172 25.3992H163.334C163.334 25.3992 163.455 25.3597 163.496 25.2411C163.78 24.5709 164.022 23.8607 164.225 23.1509C164.365 22.7153 164.466 22.261 164.568 21.8009C164.614 21.5945 164.661 21.3869 164.711 21.1794L164.713 21.1649L164.713 21.1647C164.793 20.7353 164.873 20.3062 164.873 19.8381C164.873 19.7199 164.913 19.6413 164.995 19.5618C165.196 19.4051 165.439 19.2868 165.68 19.169L165.683 19.1678C165.926 19.0495 166.179 18.9312 166.432 18.8128L166.433 18.8123C166.686 18.6941 166.939 18.5759 167.181 18.4577C167.205 18.4807 167.23 18.5037 167.256 18.527C167.361 18.6235 167.473 18.7251 167.505 18.8521C167.535 18.9973 167.455 19.1211 167.379 19.2394L167.378 19.2397C167.351 19.2819 167.324 19.3235 167.303 19.365C166.898 19.9171 166.412 20.4688 165.926 20.9813C165.655 21.2725 165.347 21.5635 165.039 21.8543L165.039 21.8546C164.887 21.9975 164.736 22.1403 164.59 22.2831C164.59 22.3211 164.585 22.3632 164.581 22.4068C164.572 22.4988 164.562 22.5973 164.59 22.6775C164.63 22.7561 164.751 22.8747 164.833 22.9146C164.873 22.9542 165.076 22.9933 165.116 22.9933H165.318C165.44 22.9542 165.561 22.9146 165.683 22.8747C166.047 22.7561 166.412 22.5593 166.736 22.3621C166.855 22.2849 166.984 22.2076 167.113 22.1303L167.113 22.1301C167.247 22.0497 167.382 21.9693 167.505 21.8887H167.667V23.4272V24.2156C167.667 24.3737 167.708 24.689 167.91 24.7285C168.06 24.6921 168.175 24.5214 168.255 24.4025L168.275 24.3737L168.277 24.369L168.277 24.3688C168.357 24.2139 168.397 24.1349 168.477 23.9397C168.558 23.6635 168.599 23.4667 168.599 23.23V22.7956V21.8101V21.5738C168.599 21.258 169.085 20.9422 170.178 20.5083C170.34 20.4688 170.543 20.4688 170.705 20.4688C170.742 20.4688 170.787 20.4708 170.837 20.4731C171.004 20.4806 171.219 20.4904 171.312 20.4297C171.555 20.272 171.232 19.8381 171.069 19.6808C170.908 19.4832 170.664 19.4832 170.421 19.4832L168.72 20.3115L168.599 19.9957V19.1279C168.599 19.0884 168.72 18.9702 168.761 18.9311C168.821 18.8523 168.892 18.7833 168.963 18.7143L168.963 18.7141C169.034 18.6451 169.105 18.576 169.166 18.4972C169.328 18.3393 169.48 18.1717 169.631 18.0042C169.783 17.8366 169.935 17.6691 170.097 17.5112L170.1 17.5086C170.18 17.4304 170.26 17.3526 170.3 17.2749C170.284 17.2121 170.28 17.1431 170.277 17.0753C170.272 16.9726 170.268 16.8726 170.218 16.8014C170.097 16.6042 169.814 16.6042 169.612 16.6829C169.49 16.7224 169.358 16.7521 169.226 16.7818C169.095 16.8114 168.963 16.841 168.842 16.8805L168.64 16.9196L168.477 16.4466L168.396 15.5787L168.316 15.1448L170.543 14.5536C171.272 14.5536 171.677 14.8294 171.879 15.7755L171.961 16.5252C171.961 16.5252 172.123 18.1028 172.123 23.5453C172.123 23.6651 172.127 23.7893 172.132 23.912C172.141 24.1528 172.149 24.3876 172.123 24.5709C172.123 24.7285 172.123 24.8076 171.919 24.8076C171.748 24.8076 171.606 24.6377 171.542 24.5615C171.534 24.552 171.527 24.5439 171.522 24.5379C171.519 24.5351 171.517 24.5328 171.515 24.5309C171.232 24.176 170.988 23.7425 170.786 23.3481C170.678 23.1398 170.594 22.9201 170.514 22.7127L170.514 22.7125L170.514 22.7122C170.443 22.5276 170.376 22.3529 170.3 22.2045C170.3 22.2045 170.178 22.0073 170.057 22.0468C169.935 22.0863 169.976 22.5198 169.976 22.5198C170.421 25.3992 171.434 26.8977 172.244 26.8977C172.892 26.8977 173.297 26.3457 173.418 24.2156C173.58 21.1003 172.932 15.2238 172.932 15.2238C172.932 14.4746 172.568 13.8825 171.232 13.5676H170.097ZM167.343 20.5083H167.505V20.7845C167.384 21.0208 167.141 21.258 166.736 21.4552H166.574L167.343 20.5083ZM210.977 28.6084C188.194 28.8102 168.199 30.3849 164.402 30.9097C164.402 30.9097 161.848 31.982 162.054 32.2153C161.738 32.2689 161.704 32.2765 162.089 32.2383C162.092 32.2396 162.095 32.2408 162.099 32.2421L162.18 32.2298L162.463 32.2013H162.378C163.678 32.0207 166.872 31.6645 168.926 31.5149C170.082 31.4409 171.482 31.3179 173.053 31.18L173.053 31.18C175.765 30.9419 178.986 30.6591 182.337 30.506C183.297 30.4555 184.205 30.4072 185.075 30.3608L185.077 30.3608C196.033 29.7776 201.056 29.5102 229.72 29.1736C229.72 29.1366 225.668 28.5931 214.348 28.5931C213.289 28.5931 212.165 28.5982 210.977 28.6084Z" fill="white" style="fill:white;fill-opacity:1;"/>
</g>
<defs>
<clipPath id="clip0_413_2985">
<rect width="230" height="42" fill="white" style="fill:white;fill-opacity:1;"/>
</clipPath>
</defs>
</svg>
