<svg fill="none" xmlns="http://www.w3.org/2000/svg" viewBox="0 0 394 47" class="design-iconfont">
  <path d="M31.3626 7.855C32.5302 7.855 33.2481 9.32303 33.6108 11.5186L33.6361 11.6767L33.6602 11.8371C33.6641 11.8641 33.668 11.8911 33.6718 11.9183L33.6941 12.0822L33.7152 12.2485C33.7187 12.2764 33.722 12.3043 33.7254 12.3324L33.7447 12.502L33.763 12.6736C33.7659 12.7024 33.7688 12.7312 33.7716 12.7602L33.78 12.8473C33.9551 14.7032 34.667 16.2739 35.4013 17.3816L35.4691 17.4825C35.5143 17.5489 35.5596 17.6135 35.6048 17.6763L35.6725 17.7692L35.7399 17.8593C35.7511 17.874 35.7623 17.8887 35.7735 17.9033L35.8404 17.9892L35.9069 18.0722L35.9728 18.1524L36.0381 18.2297C36.0489 18.2424 36.0597 18.2549 36.0704 18.2673L36.1346 18.3402C36.1558 18.364 36.1769 18.3873 36.1979 18.4102L36.2602 18.4771C36.2808 18.4989 36.3013 18.5202 36.3215 18.541L36.3817 18.6018C36.4015 18.6216 36.4212 18.6408 36.4406 18.6596L36.4983 18.7142C36.5078 18.723 36.5172 18.7317 36.5266 18.7403C39.8629 21.3898 42 25.4671 42 30.0402C42 38.0261 35.4829 44.5 27.4436 44.5C27.1452 44.5 26.8488 44.4911 26.5549 44.4735L24.4705 44.4102L24.2616 44.3839C24.1477 44.3693 24.0353 44.3541 23.9242 44.3386C23.5415 44.2952 23.1617 44.2423 22.7851 44.1801C17.2294 42.7453 13.1919 37.7251 13.1919 31.8378C13.1919 30.576 13.3763 29.3392 13.7351 28.1554L13.7693 28.0446L13.8178 27.8895L13.7896 27.8528L13.8237 27.7431C14.4276 25.8287 15.497 24.2106 16.9104 22.8304L16.9174 22.8574L16.9334 22.9182L16.9494 22.9786L17.0131 23.2168L17.0851 23.4803L17.1208 23.6091L17.1919 23.8605L17.2619 24.1035L17.3309 24.3377L17.3985 24.5629L17.4317 24.672C18.0841 26.8031 18.9057 28.158 19.6833 29.074C18.4852 28.8732 17.202 29.1709 16.2085 29.9905C14.4866 31.4111 14.2806 33.8673 15.7329 35.5075L15.7794 35.559L15.8426 35.6268C17.1417 36.9961 19.2505 37.785 22.1689 37.9934L22.33 38.0047L22.6474 38.0251L22.9587 38.043L23.2639 38.0582L23.4142 38.0648L23.7102 38.0761L23.8559 38.0808L24.1427 38.0881C24.2373 38.0901 24.3308 38.0917 24.4233 38.0928L24.7655 38.095L25.0981 38.0931L25.3573 38.0886C25.9771 38.0745 26.6988 38 27.5221 37.8649C28.2907 37.7388 28.9235 37.2168 29.162 36.5122L29.2111 36.3652C29.4357 35.6835 29.5961 35.0658 29.6922 34.5122L29.7328 34.2693L29.781 33.9571L29.8262 33.6353C29.8379 33.5482 29.8492 33.4601 29.8603 33.3709L29.8924 33.1005L29.9078 32.9629L29.9371 32.6833L29.9511 32.5411L29.9776 32.2523L30.0021 31.9573L30.0248 31.6562L30.0355 31.5033C30.0738 30.9376 30.0821 30.4002 30.0605 29.8912C30.0582 29.8547 30.0558 29.8185 30.0532 29.7825C30.0758 30.0975 30.086 30.428 30.0812 30.7738L30.0791 30.8149L30.0785 30.8564L30.079 30.8915L30.0785 30.9151L30.0798 30.9151C30.1108 31.5807 30.6653 32.1109 31.3449 32.1109C32.0444 32.1109 32.6114 31.5492 32.6114 30.8564L32.611 30.8219L32.6098 30.7877L32.6069 30.7095L32.5972 30.4748L32.59 30.3238L32.5823 30.177L32.5698 29.9649L32.556 29.7625L32.5462 29.6329L32.5358 29.5077L32.5249 29.3867L32.5135 29.27L32.5015 29.1576L32.489 29.0495L32.4759 28.9457L32.4726 28.9204L32.4692 28.8954L32.4554 28.798L32.441 28.7049L32.4373 28.6823L32.4336 28.66L32.4184 28.5734L32.3945 28.4462L32.377 28.3595L32.3678 28.3157L32.348 28.227L32.3266 28.1369L32.3114 28.076L32.2953 28.0145L32.2783 27.9523L32.2511 27.8578L32.2356 27.8066C32.0933 27.3431 31.8717 26.8245 31.5033 26.2284C31.4814 26.193 31.4849 26.1498 31.5111 26.1198L31.5196 26.1112L31.5348 26.1001L31.5459 26.0944C31.5912 26.0744 31.6448 26.0889 31.6745 26.1281C31.8602 26.3737 32.01 26.5936 32.134 26.7956L32.1622 26.8419L32.2124 26.9268L32.2482 26.9891C32.2715 27.0303 32.2938 27.0708 32.3151 27.1106L32.3464 27.1699L32.3862 27.2476L32.4237 27.3239L32.4417 27.3616L32.4764 27.436L32.493 27.4728L32.5252 27.5456L32.5559 27.6175L32.5853 27.6888L32.6137 27.7594L32.6546 27.8645L32.7071 28.0039L32.8105 28.2843L32.8263 28.3278C32.8421 28.3722 32.858 28.4194 32.8739 28.4693L32.8899 28.52L32.9166 28.6082L32.9434 28.7009L33.0245 29.0035L33.0517 29.1118L33.079 29.2235L33.1065 29.3383L33.134 29.4561L33.1755 29.6376L33.2311 29.8879L33.3152 30.2772L33.4656 31.2228C33.5438 31.8414 34.0766 32.32 34.7222 32.32C35.4217 32.32 35.9722 31.7645 35.9722 31.0717C35.9722 30.9217 35.9459 30.808 35.9097 30.6473L35.8996 30.6022L35.8797 30.511L35.8374 30.3202L35.8269 30.2734L35.8163 30.227L35.7742 30.0452C35.7602 29.9856 35.7462 29.927 35.7322 29.8694L35.7112 29.7838L35.6693 29.6169L35.6275 29.4561C35.5521 29.171 35.4693 28.8858 35.3792 28.6005L35.3243 28.4293L35.2923 28.3216L35.2605 28.2172L35.2132 28.0669L35.1664 27.9242L35.1355 27.8332L35.1048 27.7456L35.0666 27.6407L35.0289 27.5411L34.9989 27.4651L34.9691 27.3926L34.9543 27.3575L34.9248 27.2899L34.8599 27.1455L34.8165 27.0505L34.7726 26.9565L34.7283 26.8632L34.6832 26.7705L34.6373 26.6785L34.6139 26.6326L34.5663 26.5412L34.5174 26.4501L34.505 26.4273L34.4412 26.3136L34.4134 26.2655C34.1049 25.736 33.7029 25.2035 33.0537 24.5682C33.0165 24.5317 33.0164 24.4733 33.0536 24.4361C33.0824 24.4072 33.126 24.4 33.1618 24.4152L33.1734 24.4211L33.1893 24.4331L33.295 24.5366L33.3459 24.587L33.3957 24.6366L33.4916 24.7333L33.5378 24.7804L33.5829 24.8269L33.6699 24.9176L33.7527 25.0057L33.8316 25.0914L33.9067 25.175L33.9783 25.2565L34.0466 25.3364L34.0632 25.3561L34.1433 25.4534L34.1892 25.5109C34.2194 25.5491 34.2485 25.5868 34.2768 25.6244L34.3185 25.6805L34.3723 25.7549L34.4241 25.8291L34.4742 25.9032L34.5107 25.959L34.5465 26.0149L34.5931 26.09L34.6387 26.1659L34.6611 26.2042L34.7056 26.2816L34.7495 26.3604L34.7932 26.4408L34.8368 26.5229L34.8805 26.6071L34.9468 26.7376L35.0145 26.874L35.0731 26.9939L35.0988 27.0484L35.1253 27.1063L35.1665 27.1995L35.2095 27.3003L35.2542 27.4089L35.3007 27.5251L35.3655 27.692L35.3991 27.7805L35.4509 27.9197L35.5228 28.1173L35.5978 28.3285L35.676 28.5534L35.7782 28.8536L35.8418 29.044L35.9519 29.3783L35.959 29.3953L35.9673 29.4115L35.9722 29.4194C36.15 29.8286 36.5607 30.1152 37.0391 30.1152C37.6802 30.1152 38.2 29.6003 38.2 28.9652C38.2 28.847 38.182 28.733 38.1485 28.6256L38.1352 28.5856L38.0848 28.4199L38.0211 28.2142L37.9613 28.0259L37.9192 27.8962L37.8792 27.7762L37.8294 27.6316L37.7947 27.5346L37.7622 27.4474L37.7418 27.3948L37.7224 27.3464L37.6816 27.2495C37.6607 27.2002 37.6397 27.1515 37.6187 27.1034L37.5873 27.0317L37.5243 26.891L37.4929 26.8219L37.4614 26.7538L37.3986 26.6202L37.336 26.4901L37.3048 26.4263L37.2736 26.3635L37.2116 26.2403L37.1961 26.2101L37.1807 26.1801L37.1192 26.0622L37.0582 25.9477L37.043 25.9196L37.0279 25.8917L36.9678 25.7823L36.9528 25.7555L36.9379 25.7289L36.8788 25.6246L36.8641 25.5991L36.8495 25.5738L36.7915 25.4745L36.7771 25.4502L36.7628 25.4261L36.7061 25.3319L36.6503 25.2409L36.5956 25.1533L36.542 25.0689L36.4894 24.9878L36.413 24.8721L36.2908 24.6916L36.1679 24.5125L36.0247 24.3076L35.9706 24.2312L35.8673 24.0875L35.7704 23.9554L35.7016 23.8636L35.6575 23.8056L35.5938 23.7232L35.5329 23.6462L35.4939 23.5977L35.4373 23.5289L35.3832 23.4646L35.3312 23.4046L35.2976 23.3668L35.2488 23.3132L35.2017 23.2631L35.1561 23.2161L35.1118 23.1721L35.0687 23.1306L35.0126 23.0787L34.9714 23.0421L34.9173 22.9956L34.8771 22.9622L34.7968 22.8979L34.5439 22.7029L34.5346 22.6947C34.5031 22.6629 34.4986 22.6135 34.5255 22.5761C34.5545 22.5357 34.6118 22.5248 34.6541 22.5516C35.0878 22.8262 35.5963 23.3252 35.9753 23.7725L36.0154 23.8202L36.0854 23.9054L36.1245 23.9542C36.1758 24.0188 36.2234 24.0814 36.2667 24.1409L36.2984 24.185L36.3438 24.2493C36.3595 24.2708 36.3759 24.2917 36.3927 24.312C36.5956 24.6366 36.8996 24.888 37.3029 24.888C37.8567 24.888 38.3056 24.4434 38.3056 23.8949C38.3056 23.8237 38.298 23.7544 38.2836 23.6875C38.2691 23.6157 38.2457 23.5446 38.2128 23.4755C37.8232 22.6556 35.7782 19.8524 30.4718 18.0042C28.5138 17.3222 27.8558 16.052 27.5272 14.7526L27.5173 14.7132L27.4902 14.6007L27.4644 14.4884L27.4582 14.4604L27.452 14.4324L27.4281 14.3206L27.4052 14.2093L27.3832 14.0985L27.3515 13.9337L27.3225 13.7784C27.079 9.86904 30.0014 7.855 31.3626 7.855ZM15.9668 8.53398C16.0794 8.68923 16.1652 8.85106 16.2273 9.01439C16.3028 9.25046 16.3438 9.50362 16.3438 9.76698C16.3438 9.85008 16.3409 9.93082 16.3352 10.0093C16.3174 10.122 16.2897 10.2294 16.2532 10.3292C13.287 11.0971 10.653 12.9087 8.7598 15.4497C7.80335 16.7334 7.05456 18.1793 6.54879 19.729C6.49488 19.8942 6.58649 20.0713 6.7534 20.1247C6.92032 20.1781 7.09933 20.0874 7.15324 19.9222C7.63797 18.437 8.3553 17.0518 9.27104 15.8228C11.1337 13.3228 13.7419 11.5654 16.6694 10.8742C16.856 10.8295 17.002 10.8059 17.156 10.7974C18.3481 10.8679 19.2943 11.9226 19.2943 13.2133C19.2943 13.5159 19.2581 13.7883 19.1821 14.0347L19.1359 14.0453C16.1373 14.7502 13.4488 16.4813 11.4616 18.9473C10.3988 20.266 9.55744 21.7702 8.97932 23.3942C8.92076 23.5587 9.0081 23.7391 9.1744 23.797C9.3407 23.8549 9.52299 23.7685 9.58155 23.604C10.136 22.0465 10.9426 20.6045 11.9608 19.3409C13.8606 16.9835 16.4264 15.3315 19.2845 14.6596C19.5178 14.6039 19.69 14.5801 19.8897 14.5769L19.9156 14.5767L19.9521 14.5794C21.1662 14.6776 22.1225 15.7515 22.1225 17.0619C22.1225 17.8394 21.8879 18.2882 21.3617 18.7417L21.3009 18.7931C21.2595 18.8274 21.2165 18.8618 21.1717 18.8964L21.1033 18.9485L21.0324 19.0012L20.9588 19.0543L20.8827 19.1082L20.8039 19.1629L20.7225 19.2185L20.5954 19.3037L20.4165 19.4216L20.304 19.4949L20.2631 19.5209L20.1578 19.5863L19.8462 19.7768L19.7416 19.8411L19.6307 19.91L19.5138 19.9833L19.3912 20.0613L19.2633 20.1439C19.2415 20.1581 19.2195 20.1725 19.1974 20.187L19.0619 20.2767L18.9219 20.3711L18.8169 20.4431L18.7098 20.5177L18.6007 20.5948L18.4896 20.6746C18.471 20.6881 18.4522 20.7017 18.4334 20.7155L18.3198 20.7992C18.3007 20.8134 18.2815 20.8277 18.2623 20.8421L18.1463 20.9298L18.0288 21.0202C17.9894 21.0508 17.9498 21.0819 17.9101 21.1134L17.7901 21.2093C17.5964 21.3656 17.3987 21.5326 17.1992 21.7106C15.3045 23.338 13.8859 25.3119 13.1631 27.7381L13.1363 27.8293L13.0923 27.9812L13.1168 28.0133L13.094 28.0902C12.7402 29.2973 12.5585 30.5556 12.5585 31.8378C12.5585 36.5685 15.0424 40.7655 18.8237 43.1483C10.1768 40.0302 4 31.7962 4 22.129C4 21.9269 4.0027 21.7253 4.00807 21.5244C4.0027 21.3849 4 21.2454 4 21.1058C4 16.6516 5.83914 12.4893 8.85123 9.90788C8.88706 9.89673 8.92125 9.8789 8.95224 9.85446C10.5384 8.6033 12.2205 7.73978 13.6857 7.56101C14.6495 7.44343 15.4499 7.82081 15.9668 8.53398ZM14.645 2.83206C14.9606 3.01466 15.2525 3.30661 15.4131 3.60636L15.4655 3.70749L15.4994 3.77468L15.5324 3.84199L15.5646 3.90968L15.5959 3.97801L15.6112 4.01249L15.6412 4.08226C15.6609 4.12917 15.6799 4.17694 15.6984 4.22592L15.7255 4.30033C15.8412 4.62705 15.9296 5.01195 15.985 5.55007L15.9972 5.67592L16.0071 5.79179L16.0164 5.91095L16.0249 6.03341L16.0326 6.15916L16.0397 6.2882L16.0459 6.42053L16.0515 6.55616L16.0563 6.69508L16.0603 6.83729L16.0637 6.9828L16.0663 7.1316L16.0681 7.28369L16.0695 7.518V7.67833L16.069 7.80106C15.4341 7.21422 14.5787 6.92252 13.6073 7.04104C12.3309 7.19677 10.9435 7.80689 9.58862 8.7132L10.302 7.20513L11.3236 5.05504L11.8175 4.02458L11.9859 3.67905L12.0297 3.59138L12.0604 3.53217L12.0644 3.52493C12.7078 2.30933 13.7414 2.30933 14.645 2.83206Z" fill="#fff"/>
  <path opacity=".7" fill-rule="evenodd" clip-rule="evenodd" d="M25.7472 24.0504C26.9957 24.0504 28.0953 24.682 28.7381 25.6403L28.7634 25.6789L28.7934 25.7197L28.8241 25.7632L28.8556 25.8092L28.8879 25.8579L28.9208 25.9093C28.9263 25.918 28.9319 25.9269 28.9375 25.9359L28.9712 25.9911L29.0228 26.0788L29.0577 26.1405L29.0929 26.2048L29.1284 26.2716L29.1641 26.341L29.2 26.4129L29.236 26.4873C29.2481 26.5125 29.2601 26.5382 29.2721 26.5643L29.3081 26.6437C29.3141 26.6572 29.3201 26.6708 29.3261 26.6844L29.362 26.7676L29.3977 26.8534L29.4331 26.9415C29.4449 26.9714 29.4566 27.0016 29.4683 27.0322L29.5031 27.1253L29.5374 27.2209C29.5431 27.237 29.5488 27.2533 29.5545 27.2696L29.5881 27.3688L29.6212 27.4705L29.6536 27.5745L29.6853 27.681L29.7163 27.7899C29.7316 27.8449 29.7466 27.9009 29.7612 27.9577L29.79 28.0725C29.7947 28.0918 29.7994 28.1113 29.804 28.1308L29.8314 28.2492C29.8939 28.5281 29.9478 28.8263 29.9895 29.143L30.0066 29.2799C30.0298 29.4764 30.0484 29.6797 30.0614 29.8899C30.0831 30.3989 30.0747 30.9363 30.0364 31.502L30.0257 31.6549L30.0031 31.956L29.9785 32.251L29.952 32.5399L29.938 32.682L29.9087 32.9616L29.8934 33.0992L29.8612 33.3697C29.8502 33.4588 29.8388 33.5469 29.8271 33.634L29.7819 33.9558L29.7337 34.268L29.6931 34.5109C29.597 35.0645 29.4366 35.6822 29.212 36.3639L29.1629 36.5109C28.9244 37.2156 28.2916 37.7375 27.523 37.8636C26.6997 37.9987 25.9781 38.0732 25.3582 38.0873L25.099 38.0918L24.7664 38.0937L24.4243 38.0915C24.3317 38.0904 24.2382 38.0888 24.1436 38.0868L23.8568 38.0795L23.7111 38.0748L23.4151 38.0636L23.2649 38.0569L22.9597 38.0417L22.6483 38.0239L22.3309 38.0034L22.1698 37.9922C19.2514 37.7837 17.1426 36.9948 15.8435 35.6255L15.7803 35.5577L15.7338 35.5062C14.2815 33.866 14.4875 31.4098 16.2094 29.9893C17.2029 29.1696 18.4862 28.8719 19.6843 29.0727C19.7467 29.1463 19.8087 29.2168 19.8703 29.2847L19.948 29.3692C19.9738 29.3969 19.9996 29.4241 20.0252 29.4509L20.1019 29.5299C20.1146 29.5429 20.1274 29.5557 20.14 29.5685L20.2159 29.6437C20.2285 29.656 20.241 29.6682 20.2536 29.6804L20.3284 29.7519L20.4026 29.8211L20.4759 29.888L20.5485 29.9527L20.6202 30.0154C20.6321 30.0256 20.6439 30.0358 20.6557 30.0459L20.7261 30.1055L20.7954 30.1631L20.8975 30.2462L20.9641 30.2994L21.062 30.3761L21.157 30.4494L21.1581 30.4486C21.3168 30.5667 21.4793 30.6366 21.6834 30.7082C22.7157 31.0704 22.8781 30.3189 22.7157 29.7825C22.6741 29.6448 22.6096 29.4181 22.5249 29.2222C22.4402 29.0264 22.1588 28.2141 22.1588 27.6049C22.1588 25.6418 23.7654 24.0504 25.7472 24.0504Z" fill="#fff"/>
  <path d="M75.3778 20.2714C76.119 21.6143 78.5709 22.7571 80.0819 23.1286L79.3406 25.6429C78.0007 25.3571 76.8033 24.8143 75.7484 24.1286L75.0642 27.1571H76.4612C77.459 27.1571 78.1432 27.3286 77.9436 28.5286C77.6015 30.7 77.0884 33.6429 76.6037 36.2143H68.8776L68.3645 33.9H73.8953L74.6936 29.9857C74.7791 29.5857 74.608 29.4143 74.2089 29.4143H64.4872L65.3995 24.7286C64.4872 25.1286 63.5463 25.4429 62.634 25.6429L63.2327 22.7857C65.1144 22.2714 66.8535 21.3857 68.0223 20.2714H63.7174L64.1736 18.0429H69.5333C69.7614 17.6429 69.961 17.1857 70.132 16.7286H64.4016L64.8578 14.4429H66.8249L66.1407 11.0143H69.1342C69.3338 12.1571 69.5619 13.2143 69.8184 14.4429H70.8448C71.1299 13.1571 71.2724 11.9286 71.358 10.5286H74.38C74.2944 11.9286 74.1519 13.2143 73.8668 14.4429H74.9787C75.4918 13.3857 75.948 12.1571 76.3186 11.0143H79.3121C78.8845 12.2143 78.3998 13.3571 77.8581 14.4429H79.9678L79.4261 16.7286H73.1826C73.04 17.1857 72.8404 17.6143 72.6694 18.0429H80.3099L79.7683 20.2714H75.3778ZM62.52 11.2714C63.974 11.2714 64.5442 11.5286 64.3161 12.9286L60.1822 36.2143H57.2743L58.9563 27.2714H57.0177C56.362 30.5571 55.5922 33.6143 54.851 36.2143H52C52.8553 33.4143 53.625 30.3857 54.2808 27.1L57.1032 11.2714H62.52ZM61.3796 14.2429C61.4652 13.7857 61.2941 13.7 60.8665 13.7H59.441L58.6712 18.0429H60.6669L61.3796 14.2429ZM72.4128 20.2714H71.358C70.8448 20.9857 70.1606 21.7 69.3338 22.3571H73.7528C73.2111 21.7286 72.7549 21.0143 72.4128 20.2714ZM59.384 24.9286L60.2392 20.3571H58.2436L57.4453 24.9286H59.384ZM67.9083 27.1571H72.1277L72.6979 24.5286H66.882L68.2219 25.4429L67.9083 27.1571ZM72.983 30.5571L72.4698 32.7857H62.634L62.2349 30.5571H72.983Z" fill="#fff"/>
  <path d="M90.8299 16.7286H87.7224C87.3803 14.7286 87.0097 12.7286 86.6676 10.7286H89.6325L90.8299 16.7286ZM105.94 10.9857C107.679 10.9857 107.964 11.5 107.708 12.9286C106.539 19.4714 105.256 26.8429 104.087 33.3286H107.622L106.596 35.9857H100.438C101.321 31.0429 102.063 26.7 102.718 22.9286H98.1569L95.8761 35.9857H92.7401L95.0208 22.9286H91.115L91.5997 20.5H95.4485L96.5318 14.3857L99.2973 16.4429L98.5845 20.5H103.146C103.545 18.1857 103.916 16.1 104.258 14.3286C104.4 13.5857 104.087 13.5 103.431 13.5H92.9111L92.341 10.9857H105.94ZM89.9176 18.2429L87.7509 30.4429C88.9198 29.5857 90.2598 28.5 91.5142 27.5L90.8299 31.2143C88.7773 32.8714 86.1259 34.7 83.446 36.3286L86.3254 20.7571H83.389L83.8166 18.2429H89.9176Z" fill="#fff"/>
  <path d="M126.153 20.9H136.531L136.16 23.5286H125.783L123.958 36.2143H120.451L122.361 23.5286H112.184L112.554 20.9H122.732L123.331 16.9571H114.236L114.607 14.3286H123.73L124.3 10.5H127.664L127.123 14.3286H136.16L135.789 16.9571H126.723L126.153 20.9ZM109.817 34.7571C112.782 31.1857 114.749 28.4429 116.774 25.1857H120.252C118.171 28.7571 116.26 31.5 113.752 34.7571H109.817ZM127.436 25.1857H130.772C132.083 28.4429 133.48 31.4143 135.333 34.7571H131.542C130.088 31.6714 128.947 28.9857 127.436 25.1857Z" fill="#fff"/>
  <path d="M165.81 17.3857H157.599C157.685 20.5 157.97 23.2143 158.312 25.7857C159.652 23.7571 160.792 21.1286 161.362 19.0714H164.641C163.586 22.7857 161.476 26.5286 158.968 29.2429C159.395 30.8143 159.851 32.2714 160.336 33.5857H164.128L163.073 36.2143H157.856C157.371 34.9 156.829 33.2429 156.43 31.7286C154.378 33.5286 151.726 35.3 148.818 36.5L149.759 32.9286C151.698 32.0143 153.864 30.4714 155.718 28.7286C155.062 25.0714 154.691 21.1571 154.577 17.3857H145.796C145.654 18.6429 145.483 19.9 145.283 21.1571H151.384C152.838 21.1571 153.009 21.5857 152.81 23.0714C152.496 25.4714 151.983 28.6714 151.498 31.3857H145.511L144.884 28.8714H148.761C149.075 27.2143 149.331 25.4143 149.474 24.1286C149.503 23.8143 149.474 23.6429 149.189 23.6429H144.884C144.114 28.0429 142.974 32.4143 141.292 36.2143H137.671C141.121 29.0714 142.318 21.9571 142.888 14.8714H154.549C154.52 13.2143 154.52 11.5 154.549 10.5H157.628C157.571 12.6714 157.571 13.8429 157.571 14.8714H166.181L165.81 17.3857ZM164.242 14.3H160.735C160.194 13.1571 159.652 12.0429 159.196 10.9571H162.332C162.902 12.0714 163.558 13.1286 164.242 14.3Z" fill="#fff"/>
  <path d="M194.148 15.5571H185.111L184.569 19.5857H191.782L191.383 22.0143H184.227L183.514 27.0714H193.436L193.037 29.6143H183.172L182.26 36.2143H178.867L179.837 29.6143H167.578L167.977 27.0714H172.082L173.308 19.5857H181.291L181.861 15.5571H177.128C175.076 17.9857 172.225 20.0429 168.889 21.5857L169.573 17.9C172.396 16.5 175.475 13.6143 176.729 10.5286H180.093C179.78 11.4143 179.38 12.3 178.867 13.1286H194.548L194.148 15.5571ZM180.207 27.0714L180.92 22.0143H176.159L175.389 27.0714H180.207Z" fill="#fff"/>
  <path d="M220.719 36.2143H216.272C214.419 33.0714 212.081 27.7286 210.171 22.5857C208.033 27.8143 204.469 32.7571 200.078 36.2143H194.918C200.535 32.1 205.125 26.1857 207.348 20.5C208.375 17.9286 209.144 13.5286 209.258 10.6429H212.765C212.508 14.6429 211.967 17.4714 210.798 20.9H212.851C214.818 25.8714 217.07 30.9857 220.719 36.2143Z" fill="#fff"/>
  <path d="M250.512 12.4429C251.709 12.4429 251.966 12.8429 251.823 13.9L251.025 19.0429H247.832L248.402 15.3C248.43 15.0714 248.373 14.9286 248.174 14.9286H230.355L229.814 19.0429H226.621L227.533 12.4429H237.483C237.283 11.7857 237.084 11.1286 236.941 10.5H240.362C240.505 11.1 240.704 11.7571 240.932 12.4429H250.512ZM250.141 20.9C249.058 23.6429 246.577 26.3 244.268 27.7571C245.608 29.6143 247.461 31.2429 249.827 32.5286L247.889 35.4714C244.696 33.1857 242.529 30.3571 241.161 26.4429C240.761 29.5 240.277 32.9 239.792 36.2143H233.377L232.665 33.7286H237.027C237.568 30.3 238.139 26.5571 238.538 23.2714C238.566 23.0143 238.509 22.9571 238.31 22.9571H233.434C231.553 23.9571 228.987 24.7286 225.993 25.3571L226.82 22.3571C230.127 21.7571 233.32 20.5 235.259 18.8429H230.726L231.011 16.4429H247.433L247.062 18.8429H238.823C238.31 19.4714 237.682 20.0429 236.884 20.7H240.305C241.531 20.7 241.788 20.9571 241.674 22.3C241.987 23.3286 242.415 24.4429 242.9 25.4429C244.268 24.7 246.036 22.5571 246.805 20.9H250.141ZM237.483 23.7286C235.06 27.1857 230.669 29.1 225.623 30.1857L226.478 27.0714C229.557 26.5286 232.38 25.4429 234.119 23.7286H237.483ZM237.54 27.7857C235.088 31.5 230.726 34.1571 223.77 35.4714L224.654 32.2714C228.559 31.5571 232.38 29.7 234.176 27.7857H237.54Z" fill="#fff"/>
  <path d="M262.885 20.9H279.534L279.135 23.5286H262.514L261.174 33.4143H267.703L266.648 36.2143H257.325L259.122 23.5286H254.189L254.56 20.9H259.492L260.946 10.5H264.31L262.885 20.9ZM277.852 11.1571C275.229 14.0429 272.407 16.8714 269.328 19.5857H264.538C267.959 16.8714 271.039 14.0429 273.832 11.1571H277.852ZM266.306 24.9286H270.012C272.093 28.3 274.973 32.5857 277.624 36.2143H273.177C270.982 33.0429 268.786 29.4143 266.306 24.9286Z" fill="#fff"/>
  <path d="M291.993 11.0429C293.533 11.0429 294.074 11.3 293.875 12.6714L290.396 36.2143H287.346L288.743 27.2714H285.493C284.809 30.8143 284.096 33.8714 283.469 36.2143H280.361C281.245 33.4143 282.043 30.2143 282.784 25.9571C283.526 21.7 284.381 15.9857 285.037 11.0429H291.993ZM304.48 17.3C304.68 16.3 304.908 14.8429 305.022 14.0714C305.079 13.7286 304.993 13.5857 304.623 13.5857H298.835L297.666 21.8429H306.191C307.046 21.8429 307.217 22.1857 307.217 22.9571C307.217 23.7286 306.903 24.5571 306.419 25.5286C305.478 27.3 304.395 29.2429 303.026 31.1857C304.11 32.9286 305.278 34.6143 306.533 36.2143H302.884C302.285 35.3286 301.743 34.4714 301.202 33.5857C300.603 34.3571 299.862 35.2714 299.006 36.2143H292.535L296.212 11.0714H306.932C308.158 11.0714 308.471 11.4429 308.3 12.7286C308.015 14.8429 307.588 17.4429 307.16 19.8143H300.888L300.175 17.3H304.48ZM290.824 14.0143C290.881 13.5857 290.796 13.4714 290.339 13.4714H287.603L287.004 17.8143H290.225L290.824 14.0143ZM285.92 24.9286H289.114L289.855 20.1286H286.662L285.92 24.9286ZM303.596 24.3571H297.296L297.096 25.7286H299.862C300.375 26.7286 300.945 27.7286 301.515 28.7286C302.37 27.4143 303.254 25.8714 303.767 24.8143C303.91 24.4714 303.796 24.3571 303.596 24.3571ZM295.671 35.9C297.239 34.2714 298.607 32.6714 299.776 31.1286C298.835 29.4429 297.951 27.7571 297.068 26.0429L295.671 35.9Z" fill="#fff"/>
  <path d="M310.496 23.9857C315.143 22.1286 318.051 20.9 321.871 19.0714C320.274 18.1 319.077 17.2714 317.965 16.5286C316.511 17.5286 314.829 18.3571 313.033 18.9571L313.917 15.6714C316.34 14.6714 318.507 12.9286 319.533 10.5H322.869C322.641 11.2429 322.327 11.9286 321.899 12.6143H333.218C334.045 12.6143 334.387 12.8714 334.33 13.3857C334.216 14.2429 333.845 15.0429 333.018 15.6143C331.707 16.5 329.597 17.7571 326.917 19.2143C330.11 21.0429 333.531 22.6714 336.325 23.9857H330.509C328.485 22.9571 326.547 21.8429 324.351 20.5286C321.899 21.7857 319.191 23.0429 316.996 23.9857H310.496ZM320.046 14.8714C319.59 15.3 319.077 15.7286 318.564 16.1286H321.871C322.669 16.6429 323.382 17.1 324.465 17.7571C326.803 16.5571 327.858 15.8714 328.799 15.2429C329.084 15.0429 329.112 14.8714 328.827 14.8714H320.046ZM331.735 25.1857C333.132 25.1857 333.417 25.7857 333.303 26.9857C333.047 29.7857 332.562 33.4429 332.106 36.2143H323.211L322.441 33.7571H329.141C329.426 32.1286 329.768 29.4429 329.882 28.1C329.911 27.7 329.797 27.5857 329.512 27.5857H323.382C321.785 31.4714 318.649 34.0429 315.342 36.2143H309.327C314.43 33.8714 318.735 30.4714 320.103 27.5857H313.518L312.89 25.1857H320.987C321.215 24.3571 321.415 23.4714 321.614 22.5H324.836C324.636 23.4429 324.408 24.3571 324.18 25.1857H331.735Z" fill="#fff"/>
  <path d="M364.949 11.3571L364.607 13.7571H354.97L353.545 23.9571H364.55L364.179 26.3571H353.203L351.834 36.2143H348.556L349.953 26.3571H339.575L339.946 23.9571H350.295L351.749 13.7571H342.626L342.968 11.3571H364.949ZM346.418 15.2714C346.874 16.9857 347.615 19.3857 348.698 22.4714H345.391C344.764 20.4714 344.08 18.0714 343.367 15.2714H346.418ZM359.133 22.5H355.74C357.251 20.1857 358.449 17.7857 359.361 15.3H362.411C361.442 17.8143 360.387 20.2143 359.133 22.5Z" fill="#fff"/>
  <path d="M388.726 19.8429L388.042 21.3571H368.284C371.62 18.0714 375.469 13.8429 378.063 10.5H382.197C379.46 13.9571 376.666 17.0143 374.87 18.7857H388.099C387.015 16.9857 385.875 15.1 384.905 13.3H388.27C389.866 15.9857 392.232 19.5 394 22.3H390.123C389.695 21.5 389.21 20.6714 388.726 19.8429ZM388.555 24.3571C390.322 24.3571 390.607 24.9286 390.379 26.7L389.125 36.2143H368.741L370.48 24.3571H388.555ZM386.987 27.3857C387.044 27.1 386.958 26.9286 386.645 26.9286H373.331L372.475 33.6429H386.16L386.987 27.3857Z" fill="#fff"/>
</svg>
